<svg xmlns="http://www.w3.org/2000/svg" viewBox="0 0 1553 808"><defs><style>.cls-1{fill:#009245;}.cls-2{fill:#603813;}.cls-3{font-size:66px;fill:#fbb03b;font-family:BrushScriptMT, Brush Script MT;}.cls-4{letter-spacing:-0.02em;}</style></defs><g id="Ebene_2" data-name="Ebene 2"><g id="Ebene_1-2" data-name="Ebene 1"><path class="cls-1" d="M264.54,783.5a240.05,240.05,0,0,1-240-240V264.54a240.05,240.05,0,0,1,240-240H1288.46a240.05,240.05,0,0,1,240,240V543.46a240.05,240.05,0,0,1-240,240Z"/><path class="cls-2" d="M1288.46,49A215.54,215.54,0,0,1,1504,264.54V543.46A215.54,215.54,0,0,1,1288.46,759H264.54A215.54,215.54,0,0,1,49,543.46V264.54A215.54,215.54,0,0,1,264.54,49H1288.46m0-49H264.54C118.44,0,0,118.44,0,264.54V543.46C0,689.56,118.44,808,264.54,808H1288.46C1434.56,808,1553,689.56,1553,543.46V264.54C1553,118.44,1434.56,0,1288.46,0Z"/><text class="cls-3" transform="translate(637.99 403.7)">Online <tspan class="cls-4" x="154.08" y="0">P</tspan><tspan x="193.68" y="0">oker</tspan></text></g></g></svg>